<svg id="Layer_1" data-name="Layer 1" xmlns="http://www.w3.org/2000/svg" width="55.26" height="21.16" viewBox="0 0 55.26 21.16"><defs><style>.cls-1{fill:#0ab04c;}.cls-2{fill:#0ab04d;}.cls-3{fill:#09af4c;}.cls-4{fill:#0bb04d;}</style></defs><title>icon-paid</title><path class="cls-1" d="M14.82,11A7.4,7.4,0,0,1,9.33,21.5c-1,.12-2,0-3,.12s-1.2.36-1.2,1.2v4.06A1,1,0,0,1,4.22,28h-3C.37,28,0,27.6,0,26.76v-18A1.63,1.63,0,0,1,1.8,6.93h7A6.35,6.35,0,0,1,12.38,8c.24.12.24.24,0,.48C10.71,10.27,8.92,12,7.25,13.74c-.12.24-.24.24-.48,0-.36-.48-.84-.84-1.2-1.32a1.71,1.71,0,0,0-2.39-.12A1.61,1.61,0,0,0,3,14.57l.11.13c1,1,1.8,1.92,2.75,2.87a1.6,1.6,0,0,0,2.26,0l.13-.14c2-2,4.06-4.18,6.09-6.33C14.6,11.11,14.7,11.11,14.82,11Z" transform="translate(0 -6.92)"/><path class="cls-1" d="M51,25.81A5.13,5.13,0,0,1,47.6,28,6.68,6.68,0,0,1,40,23.3a8.29,8.29,0,0,1,1.44-8.25,6.64,6.64,0,0,1,7.88-1.55,5.17,5.17,0,0,1,1.67,1.55c.12-.12,0-.24,0-.36V8.56c0-1.07.48-1.43,1.44-1.43h1.55a1.2,1.2,0,0,1,1.32,1.31v18.2a1.15,1.15,0,0,1-1.08,1h-2a1.13,1.13,0,0,1-1.2-1.2A1.07,1.07,0,0,0,51,25.81Zm-7.16-5.62A5.24,5.24,0,0,0,44,21.5a3.43,3.43,0,0,0,2.87,2.87,3.77,3.77,0,0,0,3.76-1.55,4.78,4.78,0,0,0,0-5,3.43,3.43,0,0,0-3.35-1.55,3.11,3.11,0,0,0-2.75,2A3,3,0,0,0,43.86,20.19Z" transform="translate(0 -6.92)"/><path class="cls-2" d="M27.49,25.69c-2.15,3.1-7.17,3-9.68.12A8,8,0,0,1,15.9,20a8.51,8.51,0,0,1,1.7-4.66,6.87,6.87,0,0,1,8.12-1.91,6.66,6.66,0,0,1,1,.72c.24.24.48.59.84.95v-.59A1.27,1.27,0,0,1,29,13H30.6a1.2,1.2,0,0,1,1.32,1.32V26.16a1.2,1.2,0,0,1-1.07,1.32H28.92a1.19,1.19,0,0,1-1.32-1.32C27.49,26.16,27.49,25.93,27.49,25.69Zm0-5.26A5.86,5.86,0,0,0,27.25,19a3.58,3.58,0,0,0-3.47-2.63A3.31,3.31,0,0,0,20.44,19a5.3,5.3,0,0,0,0,2.74,3.42,3.42,0,0,0,3.1,2.75,3.46,3.46,0,0,0,3.71-2.27A9.16,9.16,0,0,0,27.49,20.43Z" transform="translate(0 -6.92)"/><path class="cls-3" d="M33.94,20.43V14.56a1.76,1.76,0,0,1,.12-.83,1,1,0,0,1,1.07-.6h1.8a1.2,1.2,0,0,1,1.31,1.32V26.28c0,1-.48,1.32-1.43,1.32H35.25a1.27,1.27,0,0,1-1.43-1.44C33.94,24.37,33.94,22.34,33.94,20.43Z" transform="translate(0 -6.92)"/><path class="cls-4" d="M38.72,9.2A2.08,2.08,0,0,1,37,11.35a5.1,5.1,0,0,1-1.91,0,2.18,2.18,0,0,1,.36-4.3,3.79,3.79,0,0,1,1.67.12A2,2,0,0,1,38.72,9.2Z" transform="translate(0 -6.92)"/></svg>